<svg width="311" height="467" viewBox="0 0 311 467" fill="none" xmlns="http://www.w3.org/2000/svg">
<path fill-rule="evenodd" clip-rule="evenodd" d="M310.5 27C310.667 27 310.834 26.9985 311 26.9954V440.005C310.834 440.002 310.667 440 310.5 440C295.864 440 284 451.864 284 466.5C284 466.667 284.002 466.834 284.005 467H26.9954C26.9961 466.96 26.9968 466.919 26.9974 466.879C26.998 466.835 26.9985 466.792 26.9989 466.749C26.9996 466.666 27 466.583 27 466.5C27 451.864 15.1355 440 0.5 440C0.332962 440 0.16629 440.002 0 440.005V26.9954C0.16629 26.9985 0.332962 27 0.5 27C15.1355 27 27 15.1355 27 0.5C27 0.332968 26.9985 0.166296 26.9954 0H284.005C284.002 0.166296 284 0.332968 284 0.5C284 15.1355 295.864 27 310.5 27Z" fill="url(#paint0_linear_2_129)"/>
<path d="M258 73H53C44.1634 73 37 80.1634 37 89V133C37 141.837 44.1634 149 53 149H258C266.837 149 274 141.837 274 133V89C274 80.1634 266.837 73 258 73Z" fill="white"/>
<path d="M53.0538 411.24C51.1178 411.24 49.5098 410.872 48.2298 410.136C46.9498 409.4 45.9978 408.376 45.3738 407.064C44.7498 405.736 44.4378 404.184 44.4378 402.408C44.4378 400.68 44.7658 399.16 45.4218 397.848C46.0778 396.52 47.0538 395.488 48.3498 394.752C49.6618 394 51.2698 393.624 53.1738 393.624C54.4538 393.624 55.5178 393.744 56.3658 393.984C57.2138 394.224 57.8458 394.552 58.2618 394.968C58.6938 395.384 58.9098 395.848 58.9098 396.36C58.9098 396.904 58.6618 397.36 58.1658 397.728C57.6858 398.096 57.0138 398.28 56.1498 398.28C56.1498 397.688 56.0378 397.152 55.8138 396.672C55.6058 396.176 55.2778 395.784 54.8298 395.496C54.3978 395.208 53.8218 395.064 53.1018 395.064C51.8538 395.064 50.8538 395.352 50.1018 395.928C49.3498 396.504 48.7978 397.336 48.4458 398.424C48.1098 399.512 47.9418 400.84 47.9418 402.408C47.9418 403.976 48.1178 405.304 48.4698 406.392C48.8378 407.464 49.4218 408.288 50.2218 408.864C51.0218 409.424 52.0858 409.704 53.4138 409.704C53.7818 409.704 54.1338 409.688 54.4698 409.656C54.8218 409.624 55.1498 409.568 55.4538 409.488V405.84C55.4538 405.392 55.3738 405.048 55.2137 404.808C55.0698 404.568 54.8618 404.4 54.5898 404.304C54.3338 404.208 54.0218 404.16 53.6538 404.16H53.4138V402.984H60.4698V404.16H60.2298C59.9098 404.16 59.6378 404.216 59.4138 404.328C59.1898 404.424 59.0138 404.6 58.8858 404.856C58.7738 405.096 58.7178 405.456 58.7178 405.936V410.016C57.8378 410.432 56.9418 410.744 56.0298 410.952C55.1178 411.144 54.1258 411.24 53.0538 411.24ZM61.4069 411V409.824H61.7189C62.0069 409.824 62.2869 409.792 62.5589 409.728C62.8309 409.648 63.0549 409.496 63.2309 409.272C63.4229 409.032 63.5189 408.68 63.5189 408.216V395.448C63.5189 395 63.4229 394.672 63.2309 394.464C63.0389 394.24 62.8069 394.096 62.5349 394.032C62.2629 393.968 61.9909 393.936 61.7189 393.936H61.4069V392.76H66.6389V408.216C66.6389 408.68 66.7269 409.032 66.9029 409.272C67.0949 409.496 67.3269 409.648 67.5989 409.728C67.8869 409.792 68.1669 409.824 68.4389 409.824H68.7509V411H61.4069ZM73.9814 411.24C73.2774 411.24 72.6374 411.104 72.0614 410.832C71.5014 410.544 71.0534 410.112 70.7174 409.536C70.3974 408.96 70.2374 408.232 70.2374 407.352C70.2374 406.072 70.6854 405.12 71.5814 404.496C72.4774 403.872 73.8294 403.528 75.6374 403.464L77.6294 403.392V402.024C77.6294 401.48 77.5894 401 77.5094 400.584C77.4294 400.152 77.2614 399.816 77.0054 399.576C76.7654 399.336 76.3814 399.216 75.8534 399.216C75.3734 399.216 74.9974 399.328 74.7254 399.552C74.4534 399.776 74.2694 400.088 74.1734 400.488C74.0774 400.872 74.0294 401.312 74.0294 401.808C73.1014 401.808 72.4054 401.696 71.9414 401.472C71.4774 401.232 71.2454 400.824 71.2454 400.248C71.2454 399.672 71.4534 399.208 71.8694 398.856C72.3014 398.504 72.8774 398.248 73.5974 398.088C74.3174 397.928 75.1014 397.848 75.9494 397.848C77.5494 397.848 78.7494 398.16 79.5494 398.784C80.3494 399.392 80.7494 400.448 80.7494 401.952V408.12C80.7494 408.552 80.7894 408.896 80.8694 409.152C80.9654 409.392 81.1254 409.568 81.3494 409.68C81.5734 409.776 81.8614 409.824 82.2134 409.824H82.2854V411H78.3014L77.8214 409.2H77.6294C77.2774 409.632 76.9414 410 76.6214 410.304C76.3174 410.608 75.9574 410.84 75.5414 411C75.1414 411.16 74.6214 411.24 73.9814 411.24ZM75.0134 409.584C75.5574 409.584 76.0214 409.456 76.4054 409.2C76.7894 408.944 77.0854 408.576 77.2934 408.096C77.5174 407.616 77.6294 407.056 77.6294 406.416V404.568L76.3814 404.64C75.6294 404.672 75.0374 404.8 74.6054 405.024C74.1894 405.248 73.8854 405.56 73.6934 405.96C73.5174 406.36 73.4294 406.856 73.4294 407.448C73.4294 407.928 73.4854 408.328 73.5974 408.648C73.7094 408.952 73.8854 409.184 74.1254 409.344C74.3654 409.504 74.6614 409.584 75.0134 409.584ZM89.2204 411.24C88.1804 411.24 87.2924 411.008 86.5564 410.544C85.8364 410.08 85.2844 409.36 84.9004 408.384C84.5164 407.392 84.3244 406.128 84.3244 404.592C84.3244 403.04 84.5084 401.768 84.8764 400.776C85.2604 399.784 85.8124 399.056 86.5324 398.592C87.2684 398.112 88.1564 397.872 89.1964 397.872C90.1084 397.872 90.8524 398.056 91.4284 398.424C92.0044 398.792 92.4684 399.272 92.8204 399.864H92.9644C92.9324 399.576 92.9004 399.264 92.8684 398.928C92.8524 398.592 92.8364 398.256 92.8204 397.92C92.8044 397.584 92.7964 397.288 92.7964 397.032V395.472C92.7964 395.008 92.7084 394.672 92.5324 394.464C92.3564 394.24 92.1164 394.096 91.8124 394.032C91.5244 393.968 91.2044 393.936 90.8524 393.936H90.6604V392.76H95.9164V408.168C95.9164 408.648 96.0044 409.008 96.1804 409.248C96.3724 409.488 96.6124 409.648 96.9004 409.728C97.2044 409.792 97.5404 409.824 97.9084 409.824H98.0284V411H93.6124L93.0844 409.008H92.9164C92.5644 409.696 92.1004 410.24 91.5244 410.64C90.9484 411.04 90.1804 411.24 89.2204 411.24ZM90.0364 409.536C91.0924 409.536 91.8124 409.128 92.1964 408.312C92.5964 407.496 92.7964 406.248 92.7964 404.568C92.7964 403.48 92.7084 402.568 92.5324 401.832C92.3724 401.08 92.0924 400.512 91.6924 400.128C91.2924 399.744 90.7324 399.552 90.0124 399.552C89.4204 399.552 88.9404 399.752 88.5724 400.152C88.2044 400.536 87.9324 401.104 87.7564 401.856C87.5964 402.592 87.5164 403.504 87.5164 404.592C87.5164 405.696 87.5964 406.616 87.7564 407.352C87.9324 408.072 88.2044 408.616 88.5724 408.984C88.9404 409.352 89.4284 409.536 90.0364 409.536ZM108.529 411V409.824H109.441C109.729 409.824 109.993 409.792 110.233 409.728C110.473 409.664 110.665 409.528 110.809 409.32C110.969 409.096 111.049 408.76 111.049 408.312V404.52L106.609 396.312C106.449 395.992 106.289 395.744 106.129 395.568C105.985 395.376 105.817 395.24 105.625 395.16C105.449 395.08 105.209 395.04 104.905 395.04H104.593V393.864H112.081V395.04H111.505C111.041 395.04 110.705 395.136 110.497 395.328C110.305 395.504 110.209 395.728 110.209 396C110.209 396.208 110.249 396.432 110.329 396.672C110.409 396.896 110.497 397.104 110.593 397.296L112.369 400.704C112.497 400.96 112.617 401.208 112.729 401.448C112.841 401.672 112.937 401.888 113.017 402.096C113.113 402.304 113.193 402.512 113.257 402.72C113.337 402.912 113.409 403.104 113.473 403.296C113.633 402.912 113.833 402.472 114.073 401.976C114.313 401.48 114.569 400.968 114.841 400.44L116.281 397.608C116.441 397.288 116.545 397.008 116.593 396.768C116.657 396.512 116.689 396.312 116.689 396.168C116.689 395.768 116.561 395.48 116.305 395.304C116.049 395.128 115.665 395.04 115.153 395.04H114.553V393.864H120.673V395.04H120.289C120.033 395.04 119.809 395.096 119.617 395.208C119.441 395.304 119.257 395.488 119.065 395.76C118.889 396.032 118.665 396.416 118.393 396.912L114.337 404.544V408.24C114.337 408.72 114.409 409.072 114.553 409.296C114.697 409.52 114.889 409.664 115.129 409.728C115.369 409.792 115.633 409.824 115.921 409.824H116.857V411H108.529ZM126.113 411.24C124.273 411.24 122.817 410.688 121.745 409.584C120.689 408.48 120.161 406.792 120.161 404.52C120.161 402.28 120.665 400.608 121.673 399.504C122.697 398.4 124.201 397.848 126.185 397.848C128.041 397.848 129.497 398.4 130.553 399.504C131.609 400.608 132.137 402.28 132.137 404.52C132.137 406.792 131.625 408.48 130.601 409.584C129.593 410.688 128.097 411.24 126.113 411.24ZM126.161 409.824C126.849 409.824 127.393 409.632 127.793 409.248C128.209 408.848 128.505 408.248 128.681 407.448C128.857 406.648 128.945 405.672 128.945 404.52C128.945 403.352 128.849 402.384 128.657 401.616C128.481 400.848 128.185 400.272 127.769 399.888C127.369 399.488 126.825 399.288 126.137 399.288C125.465 399.288 124.921 399.488 124.505 399.888C124.089 400.272 123.793 400.848 123.617 401.616C123.441 402.384 123.353 403.352 123.353 404.52C123.353 405.688 123.441 406.664 123.617 407.448C123.809 408.232 124.105 408.824 124.505 409.224C124.921 409.624 125.473 409.824 126.161 409.824ZM139.664 411.24C138.4 411.24 137.432 410.864 136.76 410.112C136.088 409.344 135.752 408.144 135.752 406.512V400.992C135.752 400.512 135.68 400.152 135.536 399.912C135.392 399.672 135.184 399.512 134.912 399.432C134.656 399.352 134.344 399.312 133.976 399.312H133.928V398.136H138.872V406.032C138.872 406.736 138.928 407.336 139.04 407.832C139.168 408.328 139.384 408.712 139.688 408.984C139.992 409.256 140.408 409.392 140.936 409.392C141.528 409.392 142.008 409.24 142.376 408.936C142.744 408.616 143.016 408.176 143.192 407.616C143.368 407.056 143.456 406.4 143.456 405.648V400.92C143.456 400.44 143.368 400.088 143.192 399.864C143.032 399.64 142.816 399.496 142.544 399.432C142.272 399.352 141.968 399.312 141.632 399.312H141.56V398.136H146.576V408.288C146.576 408.752 146.648 409.096 146.792 409.32C146.952 409.528 147.168 409.664 147.44 409.728C147.712 409.792 148.008 409.824 148.328 409.824H148.472V411H144.056L143.6 409.2H143.48C143.24 409.632 142.976 409.984 142.688 410.256C142.4 410.512 142.096 410.712 141.776 410.856C141.456 411 141.12 411.096 140.768 411.144C140.416 411.208 140.048 411.24 139.664 411.24ZM160.161 411.24C159.457 411.24 158.817 411.104 158.241 410.832C157.681 410.544 157.233 410.112 156.897 409.536C156.577 408.96 156.417 408.232 156.417 407.352C156.417 406.072 156.865 405.12 157.761 404.496C158.657 403.872 160.009 403.528 161.817 403.464L163.809 403.392V402.024C163.809 401.48 163.769 401 163.689 400.584C163.609 400.152 163.441 399.816 163.185 399.576C162.945 399.336 162.561 399.216 162.033 399.216C161.553 399.216 161.177 399.328 160.905 399.552C160.633 399.776 160.449 400.088 160.353 400.488C160.257 400.872 160.209 401.312 160.209 401.808C159.281 401.808 158.585 401.696 158.121 401.472C157.657 401.232 157.425 400.824 157.425 400.248C157.425 399.672 157.633 399.208 158.049 398.856C158.481 398.504 159.057 398.248 159.777 398.088C160.497 397.928 161.281 397.848 162.129 397.848C163.729 397.848 164.929 398.16 165.729 398.784C166.529 399.392 166.929 400.448 166.929 401.952V408.12C166.929 408.552 166.969 408.896 167.049 409.152C167.145 409.392 167.305 409.568 167.529 409.68C167.753 409.776 168.041 409.824 168.393 409.824H168.465V411H164.481L164.001 409.2H163.809C163.457 409.632 163.121 410 162.801 410.304C162.497 410.608 162.137 410.84 161.721 411C161.321 411.16 160.801 411.24 160.161 411.24ZM161.193 409.584C161.737 409.584 162.201 409.456 162.585 409.2C162.969 408.944 163.265 408.576 163.473 408.096C163.697 407.616 163.809 407.056 163.809 406.416V404.568L162.561 404.64C161.809 404.672 161.217 404.8 160.785 405.024C160.369 405.248 160.065 405.56 159.873 405.96C159.697 406.36 159.609 406.856 159.609 407.448C159.609 407.928 159.665 408.328 159.777 408.648C159.889 408.952 160.065 409.184 160.305 409.344C160.545 409.504 160.841 409.584 161.193 409.584ZM169.928 411V409.824H170C170.368 409.824 170.688 409.784 170.96 409.704C171.248 409.624 171.472 409.464 171.632 409.224C171.808 408.968 171.896 408.592 171.896 408.096V400.944C171.896 400.464 171.816 400.112 171.656 399.888C171.496 399.648 171.28 399.496 171.008 399.432C170.736 399.352 170.424 399.312 170.072 399.312H170V398.136H174.416L174.872 400.2H174.992C175.2 399.72 175.432 399.304 175.688 398.952C175.96 398.6 176.304 398.336 176.72 398.16C177.136 397.968 177.68 397.872 178.352 397.872C179.264 397.872 179.936 398.032 180.368 398.352C180.816 398.672 181.04 399.136 181.04 399.744C181.04 400.384 180.808 400.896 180.344 401.28C179.88 401.648 179.2 401.832 178.304 401.832C178.304 401.384 178.264 401.024 178.184 400.752C178.12 400.464 178 400.248 177.824 400.104C177.648 399.96 177.408 399.888 177.104 399.888C176.672 399.888 176.32 400.048 176.048 400.368C175.776 400.672 175.56 401.056 175.4 401.52C175.256 401.984 175.152 402.464 175.088 402.96C175.04 403.456 175.016 403.872 175.016 404.208V408.216C175.016 408.68 175.096 409.032 175.256 409.272C175.416 409.496 175.632 409.648 175.904 409.728C176.176 409.792 176.472 409.824 176.792 409.824H177.536V411H169.928ZM188.574 411.24C186.654 411.24 185.174 410.664 184.134 409.512C183.11 408.344 182.598 406.72 182.598 404.64C182.598 402.4 183.094 400.712 184.086 399.576C185.094 398.424 186.502 397.848 188.31 397.848C189.99 397.848 191.302 398.336 192.246 399.312C193.206 400.272 193.686 401.704 193.686 403.608V404.784H185.766C185.798 405.904 185.942 406.816 186.198 407.52C186.47 408.208 186.846 408.72 187.326 409.056C187.822 409.392 188.422 409.56 189.126 409.56C189.686 409.56 190.182 409.48 190.614 409.32C191.062 409.144 191.446 408.92 191.766 408.648C192.086 408.36 192.342 408.048 192.534 407.712C192.71 407.792 192.846 407.928 192.942 408.12C193.054 408.296 193.11 408.504 193.11 408.744C193.11 409.144 192.942 409.536 192.606 409.92C192.286 410.304 191.79 410.624 191.118 410.88C190.462 411.12 189.614 411.24 188.574 411.24ZM190.494 403.344C190.494 402.528 190.422 401.816 190.278 401.208C190.134 400.6 189.902 400.136 189.582 399.816C189.278 399.48 188.862 399.312 188.334 399.312C187.822 399.312 187.382 399.464 187.014 399.768C186.662 400.072 186.382 400.528 186.174 401.136C185.982 401.728 185.862 402.464 185.814 403.344H190.494ZM201.76 411V409.824H202.504C202.776 409.824 203.024 409.792 203.248 409.728C203.488 409.648 203.672 409.496 203.8 409.272C203.944 409.032 204.016 408.68 204.016 408.216V396.552C204.016 396.104 203.944 395.776 203.8 395.568C203.656 395.344 203.472 395.2 203.248 395.136C203.024 395.072 202.776 395.04 202.504 395.04H201.76V393.864H209.536V395.04H208.792C208.52 395.04 208.264 395.08 208.024 395.16C207.8 395.224 207.616 395.368 207.472 395.592C207.344 395.816 207.28 396.168 207.28 396.648V401.376H214.12V396.648C214.12 396.168 214.048 395.816 213.904 395.592C213.776 395.368 213.6 395.224 213.376 395.16C213.152 395.08 212.896 395.04 212.608 395.04H211.864V393.864H219.64V395.04H218.896C218.64 395.04 218.392 395.08 218.152 395.16C217.912 395.224 217.728 395.368 217.6 395.592C217.472 395.816 217.408 396.168 217.408 396.648V408.336C217.408 408.768 217.472 409.096 217.6 409.32C217.744 409.528 217.928 409.664 218.152 409.728C218.392 409.792 218.64 409.824 218.896 409.824H219.64V411H211.864V409.824H212.608C212.896 409.824 213.152 409.792 213.376 409.728C213.6 409.648 213.776 409.496 213.904 409.272C214.048 409.032 214.12 408.68 214.12 408.216V402.744H207.28V408.216C207.28 408.68 207.344 409.032 207.472 409.272C207.616 409.496 207.8 409.648 208.024 409.728C208.264 409.792 208.52 409.824 208.792 409.824H209.536V411H201.76ZM227.574 411.24C225.654 411.24 224.174 410.664 223.134 409.512C222.11 408.344 221.598 406.72 221.598 404.64C221.598 402.4 222.094 400.712 223.086 399.576C224.094 398.424 225.502 397.848 227.31 397.848C228.99 397.848 230.302 398.336 231.246 399.312C232.206 400.272 232.686 401.704 232.686 403.608V404.784H224.766C224.798 405.904 224.942 406.816 225.198 407.52C225.47 408.208 225.846 408.72 226.326 409.056C226.822 409.392 227.422 409.56 228.126 409.56C228.686 409.56 229.182 409.48 229.614 409.32C230.062 409.144 230.446 408.92 230.766 408.648C231.086 408.36 231.342 408.048 231.534 407.712C231.71 407.792 231.846 407.928 231.942 408.12C232.054 408.296 232.11 408.504 232.11 408.744C232.11 409.144 231.942 409.536 231.606 409.92C231.286 410.304 230.79 410.624 230.118 410.88C229.462 411.12 228.614 411.24 227.574 411.24ZM229.494 403.344C229.494 402.528 229.422 401.816 229.278 401.208C229.134 400.6 228.902 400.136 228.582 399.816C228.278 399.48 227.862 399.312 227.334 399.312C226.822 399.312 226.382 399.464 226.014 399.768C225.662 400.072 225.382 400.528 225.174 401.136C224.982 401.728 224.862 402.464 224.814 403.344H229.494ZM234.358 411V409.824H234.43C234.798 409.824 235.118 409.784 235.39 409.704C235.678 409.624 235.902 409.464 236.062 409.224C236.238 408.968 236.326 408.592 236.326 408.096V400.944C236.326 400.464 236.246 400.112 236.086 399.888C235.926 399.648 235.71 399.496 235.438 399.432C235.166 399.352 234.854 399.312 234.502 399.312H234.43V398.136H238.846L239.302 400.2H239.422C239.63 399.72 239.862 399.304 240.118 398.952C240.39 398.6 240.734 398.336 241.15 398.16C241.566 397.968 242.11 397.872 242.782 397.872C243.694 397.872 244.366 398.032 244.798 398.352C245.246 398.672 245.47 399.136 245.47 399.744C245.47 400.384 245.238 400.896 244.774 401.28C244.31 401.648 243.63 401.832 242.734 401.832C242.734 401.384 242.694 401.024 242.614 400.752C242.55 400.464 242.43 400.248 242.254 400.104C242.078 399.96 241.838 399.888 241.534 399.888C241.102 399.888 240.75 400.048 240.478 400.368C240.206 400.672 239.99 401.056 239.83 401.52C239.686 401.984 239.582 402.464 239.518 402.96C239.47 403.456 239.446 403.872 239.446 404.208V408.216C239.446 408.68 239.526 409.032 239.686 409.272C239.846 409.496 240.062 409.648 240.334 409.728C240.606 409.792 240.902 409.824 241.222 409.824H241.966V411H234.358ZM253.004 411.24C251.084 411.24 249.604 410.664 248.564 409.512C247.54 408.344 247.028 406.72 247.028 404.64C247.028 402.4 247.524 400.712 248.516 399.576C249.524 398.424 250.932 397.848 252.74 397.848C254.42 397.848 255.732 398.336 256.676 399.312C257.636 400.272 258.116 401.704 258.116 403.608V404.784H250.196C250.228 405.904 250.372 406.816 250.628 407.52C250.9 408.208 251.276 408.72 251.756 409.056C252.252 409.392 252.852 409.56 253.556 409.56C254.116 409.56 254.612 409.48 255.044 409.32C255.492 409.144 255.876 408.92 256.196 408.648C256.516 408.36 256.772 408.048 256.964 407.712C257.14 407.792 257.276 407.928 257.372 408.12C257.484 408.296 257.54 408.504 257.54 408.744C257.54 409.144 257.372 409.536 257.036 409.92C256.716 410.304 256.22 410.624 255.548 410.88C254.892 411.12 254.044 411.24 253.004 411.24ZM254.924 403.344C254.924 402.528 254.852 401.816 254.708 401.208C254.564 400.6 254.332 400.136 254.012 399.816C253.708 399.48 253.292 399.312 252.764 399.312C252.252 399.312 251.812 399.464 251.444 399.768C251.092 400.072 250.812 400.528 250.604 401.136C250.412 401.728 250.292 402.464 250.244 403.344H254.924ZM262.788 405.768L261.732 393.864H265.38L264.3 405.768H262.788ZM263.556 411.192C263.06 411.192 262.636 411.056 262.284 410.784C261.932 410.512 261.756 410.04 261.756 409.368C261.756 408.68 261.932 408.208 262.284 407.952C262.636 407.696 263.06 407.568 263.556 407.568C264.036 407.568 264.452 407.696 264.804 407.952C265.172 408.208 265.355 408.68 265.355 409.368C265.355 410.056 265.172 410.536 264.804 410.808C264.452 411.064 264.036 411.192 263.556 411.192Z" fill="white"/>
<path d="M155.5 216.125V314.594M155.5 314.594C147.097 314.594 139.049 316.106 131.611 318.875M155.5 314.594C163.903 314.594 171.951 316.106 179.389 318.875M194.031 227.37C181.266 225.579 168.391 224.682 155.5 224.688C142.422 224.688 129.556 225.601 116.969 227.37M194.031 227.37C199.797 228.187 205.505 229.18 211.156 230.339M194.031 227.37L208.987 288.598C209.684 291.446 208.382 294.466 205.625 295.459C201.906 296.794 197.983 297.474 194.031 297.469C190.08 297.474 186.157 296.794 182.438 295.459C179.681 294.466 178.379 291.446 179.07 288.598L194.031 227.376V227.37ZM116.969 227.37C111.203 228.187 105.495 229.18 99.8438 230.339M116.969 227.37L131.925 288.598C132.621 291.446 131.32 294.466 128.562 295.459C124.843 296.794 120.92 297.474 116.969 297.469C113.017 297.474 109.094 296.794 105.375 295.459C102.618 294.466 101.316 291.446 102.007 288.598L116.969 227.376V227.37Z" stroke="url(#paint1_linear_2_129)" stroke-width="8.5625" stroke-linecap="round" stroke-linejoin="round"/>
<defs>
<linearGradient id="paint0_linear_2_129" x1="212" y1="107" x2="-112" y2="282" gradientUnits="userSpaceOnUse">
<stop stop-color="#EA739D"/>
<stop offset="1" stop-color="#B18EE9"/>
</linearGradient>
<linearGradient id="paint1_linear_2_129" x1="155.5" y1="216.125" x2="155.5" y2="318.875" gradientUnits="userSpaceOnUse">
<stop stop-color="#FECD52"/>
<stop offset="1" stop-color="#EA8B8B"/>
</linearGradient>
</defs>
</svg>
